:SAMPLES-PER-SECOND 30
:FULLY-SPECIFIED
:DEGREES
1022
root  -18.2371 38.3287 -4.08168 -8.2843 -70.6961 5.77441
RightUpLeg  -19.0837 -5.4581 7.27762
RightLeg  14.3298 -13.0912 -0.856182
RightFoot  -3.33744 0.436338 -6.51792
RightToes  -8.3237e-009 0 -3.6325e-017
Spine  4.42774 -4.35178 1.50149
Spine1  6.06845 -5.10398 2.28172
HEad  -21.9064 -4.26901 -2.65979
LeftShoulder1  -0.319121 4.29901 -34.0143
LeftArm  12.4002 -8.33653 -46.0563
LeftForeArm  25.7091 -14.6894 -8.57284
LeftHand  -0.0218679 6.48362 1.29259
RightShoulder  -0.980476 -6.21472 29.6125
RightArm  22.1469 -11.9238 41.8007
RightForeArm  14.3959 13.4017 7.04794
RightHand  -0.0602065 3.96509 -1.00218
LeftUpLeg  14.8833 16.4764 -5.59648
LeftLeg  15.6387 -7.1735 -3.08931
LeftFoot  -18.0377 0.254902 2.58263
LeftToes  -1.18267e-011 3.61711e-011 9.57411e-011
1023
root  -19.1506 38.346 -3.43364 -5.07532 -72.5695 2.74748
RightUpLeg  -19.0495 -5.38468 8.79245
RightLeg  16.8864 -11.0623 -1.87733
RightFoot  -4.5427 0.368735 -6.7359
RightToes  -8.3237e-009 0 -3.6325e-017
Spine  3.85491 -3.78345 3.76121
Spine1  6.23735 -4.44479 2.71213
HEad  -22.5036 -4.3001 -2.78269
LeftShoulder1  -0.22563 4.062 -34.244
LeftArm  2.33256 -5.84366 -45.4441
LeftForeArm  35.106 -8.14394 -10.571
LeftHand  -0.0457333 7.8782 -0.0703311
RightShoulder  -0.933379 -6.09458 29.4536
RightArm  16.1614 -9.09857 42.5993
RightForeArm  18.3789 10.2744 6.97671
RightHand  0.0360014 3.64587 0.201182
LeftUpLeg  11.9883 20.9024 -2.77162
LeftLeg  24.9661 -12.098 -5.64255
LeftFoot  -15.0921 0.0729404 -1.08771
LeftToes  -1.18267e-011 3.61711e-011 9.57411e-011
1024
root  -19.9965 38.3495 -3.00803 -2.99512 -72.4643 0.761017
RightUpLeg  -18.7399 -5.21742 9.08653
RightLeg  19.0653 -11.1274 -2.34934
RightFoot  -6.29319 0.291849 -7.5502
RightToes  -8.3237e-009 0 -3.6325e-017
Spine  4.48432 -4.00697 3.90528
Spine1  5.24731 -4.71949 4.31908
HEad  -22.0313 -3.92904 -2.17906
LeftShoulder1  -0.184071 3.96668 -33.6472
LeftArm  -1.61408 -2.56616 -44.8704
LeftForeArm  40.4567 -3.64781 -10.5372
LeftHand  -0.121253 9.08934 -2.12003
RightShoulder  -0.956604 -6.16335 29.4057
RightArm  12.6318 -6.8129 43.7274
RightForeArm  19.5895 8.63151 6.38631
RightHand  0.028693 3.78413 0.0970528
LeftUpLeg  6.78773 19.4508 -1.15599
LeftLeg  36.7158 -13.3789 -10.1385
LeftFoot  -9.03537 0.275835 -9.13578
LeftToes  -1.18267e-011 3.61711e-011 9.57411e-011
1025
root  -20.7985 38.3209 -2.61817 0.803467 -72.3235 -2.80588
RightUpLeg  -18.3802 -5.49801 9.71363
RightLeg  20.4914 -11.112 -2.15989
RightFoot  -7.91605 0.178046 -7.71212
RightToes  -8.3237e-009 0 -3.6325e-017
Spine  5.18246 -4.13452 5.43484
Spine1  3.61663 -4.57819 4.79947
HEad  -20.426 -4.88783 -1.61769
LeftShoulder1  -0.16928 3.93255 -33.3406
LeftArm  -1.74251 0.779079 -43.6955
LeftForeArm  44.6636 -1.53594 -10.4666
LeftHand  -0.230718 10.1254 -4.11094
RightShoulder  -0.988699 -6.24885 29.4489
RightArm  10.8353 -5.85809 44.5686
RightForeArm  16.9136 9.56242 5.70487
RightHand  -0.013002 3.84314 -0.42543
LeftUpLeg  0.381925 16.284 0.291049
LeftLeg  47.8164 -12.4425 -13.9206
LeftFoot  -1.16034 1.51286 -17.1106
LeftToes  -1.18267e-011 3.61711e-011 9.57411e-011
1026
root  -21.6259 38.3438 -2.20811 2.19873 -74.0789 -4.88866
RightUpLeg  -16.5447 -4.63526 10.0834
RightLeg  21.4092 -10.3141 -2.13142
RightFoot  -9.04897 0.0972607 -7.90994
RightToes  -8.3237e-009 0 -3.6325e-017
Spine  5.67107 -3.52034 7.84142
Spine1  3.85347 -3.18469 2.8399
HEad  -19.786 -6.06683 -0.948597
LeftShoulder1  -0.151828 3.89223 -32.9935
LeftArm  -1.74654 3.31724 -41.9869
LeftForeArm  48.4708 -1.14379 -10.4975
LeftHand  -0.282779 9.91936 -5.54299
RightShoulder  -1.08485 -6.45153 30.2735
RightArm  12.05 -4.0122 44.945
RightForeArm  12.7807 11.7598 5.67725
RightHand  -0.069525 5.55584 -1.05018
LeftUpLeg  -3.8255 14.9317 1.70743
LeftLeg  55.5958 -10.6588 -15.7277
LeftFoot  5.70386 2.65943 -17.9097
LeftToes  -1.18267e-011 3.61711e-011 9.57411e-011
1027
root  -22.4463 38.4333 -1.83122 1.04633 -75.9511 -4.28093
RightUpLeg  -14.6597 -4.2323 9.86258
RightLeg  22.0338 -9.00613 -2.19913
RightFoot  -9.96613 0.0337669 -8.3633
RightToes  -8.3237e-009 0 -3.6325e-017
Spine  6.02733 -2.97138 8.71003
Spine1  4.36749 -2.10124 1.53745
HEad  -19.6552 -6.42601 -0.779101
LeftShoulder1  -0.22065 4.07035 -32.8012
LeftArm  -1.18094 6.38836 -39.9971
LeftForeArm  48.8771 -2.70667 -10.7595
LeftHand  -0.18068 8.89891 -4.15907
RightShoulder  -1.05914 -6.38667 30.1938
RightArm  16.7267 -1.67793 45.8503
RightForeArm  8.98813 15.1977 5.72045
RightHand  -0.156316 5.99912 -1.9289
LeftUpLeg  -7.84754 12.6278 2.09624
LeftLeg  61.2455 -7.3005 -13.5809
LeftFoot  3.74403 2.04517 -15.544
LeftToes  -1.18267e-011 3.61711e-011 9.57411e-011
1028
root  -23.2832 38.5888 -1.45328 -1.92389 -77.8986 -1.70932
RightUpLeg  -12.5829 -4.32604 9.10767
RightLeg  22.1019 -7.26348 -1.90188
RightFoot  -10.7568 -0.0286445 -8.62211
RightToes  -8.3237e-009 0 -3.6325e-017
Spine  5.82539 -2.4453 9.35165
Spine1  5.26747 -1.10489 -0.0189329
HEad  -19.9173 -6.11388 -1.12034
LeftShoulder1  -0.257676 4.16028 -33.1235
LeftArm  -0.158141 9.61173 -37.7038
LeftForeArm  44.7309 -5.07117 -10.7618
LeftHand  -0.13907 8.45383 -3.30901
RightShoulder  -0.982767 -6.22197 29.597
RightArm  22.2175 1.11191 47.2619
RightForeArm  7.58456 18.4998 5.2514
RightHand  -0.180694 5.78768 -2.19937
LeftUpLeg  -11.5198 10.0909 2.18953
LeftLeg  63.9332 -4.0337 -8.3528
LeftFoot  4.33257 1.45237 -10.8053
LeftToes  -1.18267e-011 3.61711e-011 9.57411e-011
1029
root  -24.1445 38.7553 -1.09031 -7.06616 -80.0424 2.8942
RightUpLeg  -10.1558 -4.78937 8.04008
RightLeg  21.8267 -4.98252 -1.25639
RightFoot  -11.3576 -0.0774104 -9.06145
RightToes  -8.3237e-009 0 -3.6325e-017
Spine  5.13298 -1.84912 9.59705
Spine1  6.91602 -0.118897 -1.45431
HEad  -20.1879 -6.01518 -1.11433
LeftShoulder1  -0.246256 4.13046 -33.159
LeftArm  -0.218658 12.1328 -36.551
LeftForeArm  39.3328 -6.49948 -10.2505
LeftHand  -0.103055 8.79877 -1.77887
RightShoulder  -0.911307 -6.0654 28.9965
RightArm  25.9849 4.15638 48.5549
RightForeArm  7.50841 21.7024 4.65447
RightHand  -0.163487 6.06317 -1.9821
LeftUpLeg  -14.3941 7.406 2.16387
LeftLeg  64.2445 -1.18139 -2.07099
LeftFoot  4.98637 0.701906 -5.01525
LeftToes  -1.18267e-011 3.61711e-011 9.57411e-011
1030
root  -24.9767 38.9079 -0.758356 -14.6588 -82.41 10.3777
RightUpLeg  -8.36813 -4.90513 7.01113
RightLeg  21.7683 -2.48343 -0.807685
RightFoot  -12.0744 -0.139187 -8.97857
RightToes  -8.3237e-009 0 -3.6325e-017
Spine  5.35071 -1.05854 10.0229
Spine1  6.63629 1.06214 -3.0737
HEad  -19.9031 -5.45078 -1.5699
LeftShoulder1  -0.202894 4.02433 -32.856
LeftArm  -0.491076 14.8201 -35.8639
LeftForeArm  35.6177 -7.81976 -9.63813
LeftHand  -0.103204 8.85286 -1.7316
RightShoulder  -0.853467 -5.94887 28.3119
RightArm  26.7783 6.21718 49.5351
RightForeArm  9.18698 24.3785 4.69406
RightHand  -0.0665532 6.01578 -1.01172
LeftUpLeg  -17.1493 4.46056 2.06333
LeftLeg  62.771 0.313832 1.24571
LeftFoot  2.8802 0.101089 -0.952319
LeftToes  -1.18267e-011 3.61711e-011 9.57411e-011
1031
root  -25.8262 39.0273 -0.461131 -25.7708 -84.2879 21.2994
RightUpLeg  -6.32156 -5.05749 6.08067
RightLeg  21.3056 -0.449499 -0.410693
RightFoot  -12.9258 -0.213721 -9.13644
RightToes  -8.3237e-009 0 -3.6325e-017
Spine  5.84869 -0.496691 10.0543
Spine1  6.00285 1.7938 -4.07611
HEad  -19.4759 -4.82337 -1.86224
LeftShoulder1  -0.21674 4.06011 -32.7787
LeftArm  -1.01927 16.8655 -35.6258
LeftForeArm  34.0919 -8.74883 -9.0601
LeftHand  -0.0711606 7.63172 -1.44513
RightShoulder  -0.825949 -5.90641 27.7705
RightArm  26.4533 8.23904 50.1309
RightForeArm  8.991 26.3815 5.19291
RightHand  -0.142465 6.31997 -1.7425
LeftUpLeg  -19.0397 1.54456 2.27802
LeftLeg  59.0724 1.37748 3.03914
LeftFoot  1.39157 -0.21447 1.81748
LeftToes  -1.18267e-011 3.61711e-011 9.57411e-011
1032
root  -26.6959 39.1497 -0.187624 -44.3175 -85.8013 39.711
RightUpLeg  -4.30031 -5.34519 5.02617
RightLeg  20.7333 1.97811 0.132328
RightFoot  -13.741 -0.280153 -8.9554
RightToes  -8.3237e-009 0 -3.6325e-017
Spine  6.29982 -0.119416 9.99907
Spine1  5.22866 2.27415 -5.09645
HEad  -19.3521 -4.35048 -1.83885
LeftShoulder1  -0.347093 4.38698 -33.1761
LeftArm  -0.163128 18.2225 -35.015
LeftForeArm  32.5557 -9.8535 -8.83606
LeftHand  -0.126299 9.33292 -2.07217
RightShoulder  -0.797908 -5.83834 27.5621
RightArm  26.5029 10.2354 50.764
RightForeArm  7.40885 27.272 5.48239
RightHand  -0.290972 6.80428 -3.11527
LeftUpLeg  -20.1193 -0.42599 2.60924
LeftLeg  53.1061 1.28495 2.31747
LeftFoot  0.49391 -0.179214 1.69371
LeftToes  -1.18267e-011 3.61711e-011 9.57411e-011
1033
root  -27.5994 39.2785 0.04022 -66.1085 -86.4818 61.3723
RightUpLeg  -1.91294 -5.55951 4.14585
RightLeg  19.4455 3.78691 0.414435
RightFoot  -14.4238 -0.333395 -8.73443
RightToes  -8.3237e-009 0 -3.6325e-017
Spine  5.42838 0.12616 10.0365
Spine1  6.19281 2.62656 -6.317
HEad  -19.6227 -3.33955 -1.81321
LeftShoulder1  -0.339255 4.36779 -33.128
LeftArm  -0.950859 18.5203 -35.4376
LeftForeArm  32.991 -9.89541 -8.58483
LeftHand  -0.16069 9.56738 -2.81929
RightShoulder  -0.776325 -5.7705 27.6177
RightArm  26.6101 12.5807 51.493
RightForeArm  6.69699 27.1821 5.50052
RightHand  -0.351753 7.31831 -3.57005
LeftUpLeg  -20.4774 -2.44384 2.86225
LeftLeg  45.3381 -0.115391 0.315469
LeftFoot  0.00234496 -0.0505467 0.504269
LeftToes  -1.18267e-011 3.61711e-011 9.57411e-011
1034
root  -28.5008 39.3359 0.232003 -83.0286 -86.7564 78.411
RightUpLeg  0.0122286 -6.07196 3.50541
RightLeg  18.4966 5.29251 0.802465
RightFoot  -14.8828 -0.384432 -9.19196
RightToes  -8.3237e-009 0 -3.6325e-017
Spine  5.13117 0.221265 9.87958
Spine1  6.03985 2.59637 -6.67026
HEad  -19.3929 -2.93786 -1.99729
LeftShoulder1  -0.329558 4.33818 -33.3596
LeftArm  -1.36817 18.5617 -35.7116
LeftForeArm  33.8709 -9.62596 -8.5818
LeftHand  -0.0979107 8.64216 -1.73944
RightShoulder  -0.754396 -5.73006 27.2481
RightArm  26.6716 13.8963 52.3499
RightForeArm  7.43769 26.8441 5.38292
RightHand  -0.280731 7.00186 -2.97425
LeftUpLeg  -20.5372 -4.01117 3.18921
LeftLeg  36.33 -2.91425 -1.95083
LeftFoot  -0.169841 0.0320795 -0.300567
LeftToes  -1.18267e-011 3.61711e-011 9.57411e-011
1035
root  -29.4148 39.3796 0.379711 -96.2769 -86.8586 91.9254
RightUpLeg  1.9425 -6.18664 3.11635
RightLeg  17.1835 6.31182 0.890924
RightFoot  -15.6175 -0.427637 -8.60481
RightToes  -8.3237e-009 0 -3.6325e-017
Spine  3.57577 0.474921 9.60941
Spine1  7.58589 2.75642 -7.02006
HEad  -20.1961 -2.63595 -1.89006
LeftShoulder1  -0.269753 4.18889 -33.2388
LeftArm  -2.26262 17.5387 -36.7698
LeftForeArm  34.6767 -9.36216 -8.44698
LeftHand  -0.132296 8.83313 -2.65178
RightShoulder  -0.809828 -5.88077 27.4566
RightArm  26.996 15.413 52.7887
RightForeArm  7.67293 25.9468 5.16627
RightHand  -0.195426 6.4997 -2.25284
LeftUpLeg  -20.2462 -4.43847 3.27367
LeftLeg  26.4908 -5.60619 -2.71688
LeftFoot  1.06878 0.120711 -1.18073
LeftToes  -1.18267e-011 3.61711e-011 9.57411e-011
1036
root  -30.3351 39.4384 0.476142 -109.972 -86.6051 105.874
RightUpLeg  3.93249 -6.2406 2.55765
RightLeg  15.7476 7.3656 0.955152
RightFoot  -15.9226 -0.447581 -8.48568
RightToes  -8.3237e-009 0 -3.6325e-017
Spine  3.15523 0.691473 8.49162
Spine1  7.53309 2.74103 -6.87162
HEad  -20.1855 -1.63359 -2.15797
LeftShoulder1  -0.266598 4.17865 -33.2268
LeftArm  -1.87678 17.3481 -37.5577
LeftForeArm  35.0782 -10.5113 -8.11941
LeftHand  -0.174588 9.13014 -3.6909
RightShoulder  -0.812892 -5.88412 27.5296
RightArm  27.9057 15.6934 52.9116
RightForeArm  6.26902 24.8228 4.98657
RightHand  -0.187322 6.75228 -2.13553
LeftUpLeg  -19.3591 -2.95757 2.44308
LeftLeg  16.2316 -7.63541 -2.06776
LeftFoot  1.59218 0.245562 -2.234
LeftToes  -1.18267e-011 3.61711e-011 9.57411e-011
